<?xml version="1.0" encoding="UTF-8"?>
<svg version="1.1" xmlns="http://www.w3.org/2000/svg" width="766" height="616">
<path d="M0 0 C252.78 0 505.56 0 766 0 C766 203.28 766 406.56 766 616 C513.22 616 260.44 616 0 616 C0 412.72 0 209.44 0 0 Z " fill="#000D21" transform="translate(0,0)"/>
<path d="M0 0 C4.30860898 2.36476052 7.110027 5.46936379 9 10 C9.51413918 15.44987526 8.79894112 19.27678687 6 24 C2.47443433 27.00943556 -0.9107632 28.75368395 -5.4375 29.77734375 C-9.65597721 31.22513253 -11.61391653 33.33166616 -14.25 36.75 C-14.71543213 37.32564697 -15.18086426 37.90129395 -15.66040039 38.49438477 C-17.12536457 40.31580469 -18.56502411 42.1548915 -20 44 C-20.90989252 45.1603631 -21.82004428 46.32052297 -22.73046875 47.48046875 C-24.09134301 49.21668883 -25.45042825 50.95414316 -26.80371094 52.69628906 C-30.08617992 56.90333176 -33.50245096 60.97069282 -37 65 C-45.09313371 74.33157077 -52.65295958 84.07156699 -60 94 C-58.83687329 95.19096751 -57.66923328 96.37752704 -56.5 97.5625 C-55.8503125 98.22378906 -55.200625 98.88507813 -54.53125 99.56640625 C-52.47307617 101.54517522 -50.3853568 103.42683911 -48.23046875 105.296875 C-43.98467528 108.98489551 -39.89154715 112.81689211 -35.8125 116.6875 C-28.59152707 123.51338266 -21.31889995 130.27934057 -14 137 C-14.26465884 140.19796093 -15.09641334 141.0905012 -17.484375 143.33203125 C-18.56222182 144.1727484 -19.65159505 144.99882583 -20.75 145.8125 C-21.33128662 146.24828369 -21.91257324 146.68406738 -22.51147461 147.13305664 C-32.01690681 154.09602577 -41.42752255 158.70034102 -53 161 C-54.0046228 161.24943359 -54.0046228 161.24943359 -55.02954102 161.50390625 C-74.43711918 166.24210517 -94.13198461 162.1724428 -111.9609375 153.9765625 C-114.82924439 152.71269384 -114.82924439 152.71269384 -116.95117188 153.70800781 C-119.24520065 155.15462367 -120.93737196 156.74374543 -122.8203125 158.6953125 C-123.52027344 159.41074219 -124.22023438 160.12617188 -124.94140625 160.86328125 C-126.02228516 161.98283203 -126.02228516 161.98283203 -127.125 163.125 C-128.56045878 164.61127148 -130.00033993 166.09328878 -131.4453125 167.5703125 C-132.07969238 168.22789551 -132.71407227 168.88547852 -133.36767578 169.56298828 C-135 171 -135 171 -137 171 C-136.319375 171.680625 -135.63875 172.36125 -134.9375 173.0625 C-131.625 176.375 -128.3125 179.6875 -125 183 C-126.41738489 186.25207092 -128.12526412 188.31361067 -130.6875 190.75 C-133.31784633 193.30989062 -135.8177527 195.88527382 -138.1875 198.6875 C-141.44430063 202.48335728 -144.9461273 205.98622176 -148.5 209.5 C-151.94939002 212.91069262 -155.36119987 216.29621585 -158.5 220 C-161.63880162 223.70378591 -165.05062955 227.08928879 -168.5 230.5 C-173.59581994 235.53850006 -173.59581994 235.53850006 -178.375 240.875 C-182.45662851 245.69501357 -187.02040426 250.04456597 -191.50439453 254.48486328 C-195.39969252 258.35673678 -199.17326391 262.27131499 -202.703125 266.484375 C-203.13109375 266.98453125 -203.5590625 267.4846875 -204 268 C-204.4434375 268.55558594 -204.886875 269.11117188 -205.34375 269.68359375 C-211.82009806 274.8310685 -230.33670346 270.2431223 -238.1328125 269.53515625 C-238.99793457 269.456604 -239.86305664 269.37805176 -240.75439453 269.29711914 C-243 269 -243 269 -246 268 C-245.7834375 269.08539063 -245.566875 270.17078125 -245.34375 271.2890625 C-245.06220674 272.7343179 -244.78097314 274.17963365 -244.5 275.625 C-244.35691406 276.33785156 -244.21382812 277.05070312 -244.06640625 277.78515625 C-243.27362869 281.9000493 -242.6538516 285.79058819 -243 290 C-245.49665435 293.66696107 -248.32031305 296.31850269 -251.68261719 299.18164062 C-256.03664181 302.96891468 -260.06081403 307.01754354 -264.078125 311.15625 C-265.58274202 312.68808103 -267.08796767 314.21931445 -268.59375 315.75 C-270.93901164 318.13876565 -273.2801518 320.53107456 -275.61132812 322.93359375 C-277.88066186 325.26917159 -280.16529045 327.58881152 -282.453125 329.90625 C-283.15109192 330.6331604 -283.84905884 331.3600708 -284.56817627 332.10900879 C-285.22275818 332.76719604 -285.87734009 333.4253833 -286.55175781 334.10351562 C-287.12275208 334.68862915 -287.69374634 335.27374268 -288.28204346 335.87658691 C-290 337 -290 337 -292.0993042 336.78112793 C-294.59146321 335.75692668 -295.91347878 334.34053304 -297.75 332.375 C-300.32048938 329.69583184 -302.89541271 327.18537568 -305.75 324.8125 C-310.63358641 320.62244065 -314.84850441 315.83315814 -319.17578125 311.0859375 C-323.36005584 306.49691135 -327.64618592 302.12445335 -332.390625 298.11328125 C-338.55738442 292.73967417 -344.24129033 286.86464998 -350 281.0625 C-351.16773374 279.88973991 -352.33570074 278.71721202 -353.50390625 277.54492188 C-356.33863234 274.69928311 -359.17018824 271.85052547 -362 269 C-360.5846017 266.0510636 -359.22500776 263.97739128 -356.875 261.6875 C-356.33617187 261.15511719 -355.79734375 260.62273437 -355.2421875 260.07421875 C-353.99932838 258.9244658 -352.74443652 257.78611365 -351.44604492 256.69946289 C-346.88650271 252.85417468 -342.74053543 248.72053387 -338.62890625 244.41015625 C-337.46583222 243.20214899 -336.3024152 241.99447188 -335.13867188 240.78710938 C-333.33872293 238.91915415 -331.54692761 237.04584705 -329.77514648 235.15112305 C-328.03893053 233.29946149 -326.27500881 231.47839645 -324.50390625 229.66015625 C-323.98486221 229.09152359 -323.46581818 228.52289093 -322.93104553 227.93702698 C-319.82614148 224.8085219 -317.80051322 223.65183535 -313.32666016 223.60742188 C-309.4033398 223.84211314 -305.63855787 224.53394509 -301.8125 225.4375 C-297.54971909 226.42784304 -293.31963965 227.29926265 -289 228 C-289.19223145 227.08186523 -289.38446289 226.16373047 -289.58251953 225.21777344 C-290.29026017 221.80559131 -290.98583646 218.39139066 -291.67333984 214.97509766 C-291.97319378 213.4978713 -292.27784408 212.02161001 -292.58740234 210.54638672 C-293.03190644 208.42391538 -293.45896418 206.29855474 -293.8828125 204.171875 C-294.14465332 202.8940918 -294.40649414 201.61630859 -294.67626953 200.29980469 C-295.00903052 196.90795137 -294.95206853 195.71249428 -293 193 C-291.07761132 191.09482674 -289.14900948 189.28960108 -287.125 187.5 C-280.52477481 181.54740385 -274.23276174 175.33383355 -268 169 C-268.93590504 167.8944811 -269.87379858 166.79064547 -270.8125 165.6875 C-271.33457031 165.07261719 -271.85664063 164.45773437 -272.39453125 163.82421875 C-273.87172469 162.14575321 -275.40039131 160.56117966 -277 159 C-280.32843961 160.44343702 -282.4559599 162.24338928 -284.96875 164.84375 C-286.07283203 165.97103516 -286.07283203 165.97103516 -287.19921875 167.12109375 C-287.95847656 167.90613281 -288.71773438 168.69117188 -289.5 169.5 C-291.00561611 171.0567406 -292.51586456 172.60901758 -294.03125 174.15625 C-294.69705078 174.84525391 -295.36285156 175.53425781 -296.04882812 176.24414062 C-297.95305587 177.95775498 -299.661274 178.98576988 -302 180 C-316.13572638 166.04072512 -316.13572638 166.04072512 -321.4296875 159.7890625 C-323.82705094 157.05773798 -326.43882182 154.55252804 -329.02734375 152.00390625 C-331.57337829 149.41753849 -333.92021557 146.6846472 -336.28515625 143.93359375 C-338.5004738 141.43568444 -340.8689817 139.11975011 -343.25 136.78125 C-345.70634849 134.28103815 -347.96309368 131.62319484 -350.25 128.96875 C-351.93798286 127.06976929 -353.68769734 125.27994012 -355.5 123.5 C-358.58704862 120.46807725 -361.40997526 117.26718451 -364.23046875 113.98828125 C-366.54670384 111.38571246 -369.01129992 108.95936552 -371.51953125 106.54296875 C-373 105 -373 105 -375 102 C-374.68208165 98.62869583 -373.32935849 96.95440528 -370.98071289 94.60839844 C-370.02951317 93.64785553 -370.02951317 93.64785553 -369.05909729 92.66790771 C-368.37057175 91.98859192 -367.6820462 91.30927612 -366.97265625 90.609375 C-366.26854111 89.90476135 -365.56442596 89.20014771 -364.838974 88.47418213 C-363.35042389 86.98797116 -361.85818284 85.50544911 -360.36254883 84.02636719 C-358.06609135 81.75355438 -355.78329278 79.46766396 -353.50195312 77.1796875 C-352.05547904 75.73878829 -350.6082393 74.29865721 -349.16015625 72.859375 C-348.47365494 72.17196228 -347.78715363 71.48454956 -347.07984924 70.77630615 C-346.44256393 70.14855286 -345.80527863 69.52079956 -345.14868164 68.87402344 C-344.58766251 68.31761169 -344.02664337 67.76119995 -343.44862366 67.18792725 C-342 66 -342 66 -340 66 C-339.73445313 65.40832031 -339.46890625 64.81664062 -339.1953125 64.20703125 C-337.96662421 61.93837477 -336.71612243 60.48152395 -334.875 58.6875 C-334.33617187 58.15511719 -333.79734375 57.62273437 -333.2421875 57.07421875 C-331.28778159 55.26622304 -329.29363537 53.53400793 -327.2734375 51.80078125 C-324.3322936 49.24165269 -321.56349356 46.58952103 -318.859375 43.78125 C-318.18132812 43.07742187 -317.50328125 42.37359375 -316.8046875 41.6484375 C-315.411804 40.19200038 -314.02659657 38.72819039 -312.6484375 37.2578125 C-311.97554687 36.56429687 -311.30265625 35.87078125 -310.609375 35.15625 C-310.01092773 34.52525391 -309.41248047 33.89425781 -308.79589844 33.24414062 C-307 32 -307 32 -304.97094727 32.11303711 C-302.70831813 33.13126226 -301.52218637 34.20163574 -299.85546875 36.03515625 C-298.97532104 36.98974731 -298.97532104 36.98974731 -298.07739258 37.96362305 C-297.45372803 38.65625244 -296.83006348 39.34888184 -296.1875 40.0625 C-294.84138812 41.52886829 -293.4950269 42.99500772 -292.1484375 44.4609375 C-291.46104492 45.2147168 -290.77365234 45.96849609 -290.06542969 46.74511719 C-286.84807707 50.25758395 -283.57857789 53.72041317 -280.3125 57.1875 C-275.70009679 62.09873328 -271.11855962 67.03649973 -266.5625 72 C-262.77908692 76.12159526 -258.91029663 80.12988363 -254.91821289 84.04980469 C-253.11722163 85.88082393 -251.43824886 87.76352277 -249.76953125 89.71484375 C-247.25781028 92.60851458 -244.67936762 95.40150661 -242 98.140625 C-241.34128906 98.81867188 -240.68257812 99.49671875 -240.00390625 100.1953125 C-238.64490107 101.58875641 -237.27739511 102.97395052 -235.90234375 104.3515625 C-235.25394531 105.02445312 -234.60554687 105.69734375 -233.9375 106.390625 C-233.34839844 106.98907227 -232.75929688 107.58751953 -232.15234375 108.20410156 C-231 110 -231 110 -231.23217773 112.12084961 C-232.1626343 114.39802742 -233.28470119 115.61569431 -235.0625 117.3125 C-235.6915625 117.91578125 -236.320625 118.5190625 -236.96875 119.140625 C-239.62606609 121.57309126 -242.33730771 123.93767545 -245.06640625 126.2890625 C-247.83844894 128.74190028 -250.41571701 131.35110994 -253 134 C-251.56013005 137.74366186 -249.12649698 139.9693114 -246.2421875 142.6328125 C-245 144 -245 144 -245 146 C-239.05574968 141.87881347 -233.95643017 137.0925304 -228.91796875 131.9375 C-228.29189728 131.29804443 -227.66582581 130.65858887 -227.02078247 129.99975586 C-224.40394163 127.31857361 -221.79412348 124.63095987 -219.19750977 121.93017578 C-217.28194073 119.94245056 -215.35132461 117.97040675 -213.41796875 116 C-212.83250778 115.3824585 -212.24704681 114.76491699 -211.6438446 114.12866211 C-209.97338867 112.4375 -209.97338867 112.4375 -207 110 C-202.99975574 110.44319223 -201.31721506 112.42663439 -198.625 115.3125 C-195.30926495 118.85670442 -192.08046037 121.43060349 -188 124 C-185.11098828 121.28429089 -182.24570415 118.54589496 -179.40014648 115.78466797 C-178.42946655 114.84914703 -177.45259111 113.92000982 -176.46948242 112.99755859 C-175.05589395 111.66905713 -173.66623894 110.31523387 -172.27734375 108.9609375 C-171.43421631 108.15446777 -170.59108887 107.34799805 -169.72241211 106.51708984 C-167.67856815 104.0769965 -167.67856815 104.0769965 -168.16479492 100.87353516 C-169.05482788 97.81136387 -170.13780494 94.93927553 -171.375 92 C-178.63292679 73.29769009 -179.83287553 53.02238806 -173 34 C-172.77505859 33.36481445 -172.55011719 32.72962891 -172.31835938 32.07519531 C-168.94064776 22.67250223 -164.54209598 14.31314398 -159 6 C-155.49172085 7.52079073 -153.04728354 9.5995673 -150.25 12.1875 C-147.30057318 14.89292489 -144.35029668 17.58177506 -141.3125 20.1875 C-136.64441652 24.24958481 -132.15594529 28.50352358 -127.64111328 32.73388672 C-121.74829741 38.25040904 -115.76060867 43.65364082 -109.73046875 49.01953125 C-105.76040196 52.56823109 -101.8326719 56.14733757 -97.98828125 59.83203125 C-97.27945801 60.5079834 -96.57063477 61.18393555 -95.84033203 61.88037109 C-94.42787553 63.23003751 -93.02107955 64.58565804 -91.62060547 65.94775391 C-86.92308319 70.43464025 -86.92308319 70.43464025 -81 73 C-80.06800781 72.18917969 -79.13601563 71.37835938 -78.17578125 70.54296875 C-67.176968 60.98509881 -56.11699766 51.52172258 -44.8203125 42.31640625 C-40.53878025 38.79985691 -36.30053427 35.23637285 -32.10546875 31.6171875 C-30.17020226 29.95633785 -28.24502229 28.45073544 -26.17578125 26.9453125 C-23.70789475 25.07793214 -21.78701548 23.53008569 -20 21 C-19.5620832 17.82089248 -19.6798938 14.97228576 -19.9296875 11.77734375 C-20.0309965 7.77563811 -18.70892068 5.85534882 -16 3 C-11.53922222 -1.05525253 -5.6979294 -1.01894303 0 0 Z " fill="#6242DF" transform="translate(562,105)"/>
<path d="M0 0 C0.71639648 0.17756836 1.43279297 0.35513672 2.17089844 0.53808594 C33.43603293 8.33699232 69.71272976 22.92177168 93 46 C93 50 93 50 90.734375 52.62109375 C89.74941856 53.57020946 88.75415532 54.50872021 87.75 55.4375 C84.22392843 58.77384856 80.95043902 62.12930499 78 66 C73.85684264 65.42818409 71.04987543 63.00876159 67.8125 60.5625 C54.77469062 51.01606636 40.78077634 43.47600244 26 37 C25.38479492 36.72704102 24.76958984 36.45408203 24.13574219 36.17285156 C-18.19692383 17.59057983 -68.39106328 14.61934308 -113 26 C-114.50240234 26.37125 -114.50240234 26.37125 -116.03515625 26.75 C-169.58855307 40.63129284 -217.09806553 75.4292472 -245.484375 123.0859375 C-247.7507404 127.00781012 -249.89318535 130.99063797 -252 135 C-252.35046387 135.6585498 -252.70092773 136.31709961 -253.06201172 136.99560547 C-269.49384204 168.03350719 -276.1658343 201.48422585 -276.1875 236.4375 C-276.1887085 238.28371948 -276.1887085 238.28371948 -276.18994141 240.16723633 C-276.11866374 251.97952912 -275.61605008 263.61662524 -273.125 275.1875 C-272.94573975 276.04698242 -272.76647949 276.90646484 -272.58178711 277.79199219 C-271.28031289 283.93257892 -269.82682547 289.99271811 -268 296 C-267.63003906 297.25167969 -267.26007813 298.50335938 -266.87890625 299.79296875 C-257.67297366 330.48916019 -240.77316862 362.06319812 -217.51171875 384.48828125 C-216 386 -216 386 -214.0625 388.5 C-211.67245203 391.39702784 -209.02794392 393.70411156 -206.171875 396.1328125 C-204.78186741 397.32781902 -203.41440413 398.54988881 -202.078125 399.8046875 C-182.42800655 418.1600307 -155.87244417 433.63555896 -130 441 C-129.02909424 441.28520508 -129.02909424 441.28520508 -128.03857422 441.57617188 C-122.71470901 443.13865026 -117.36767093 444.59595645 -112 446 C-111.28070313 446.19126465 -110.56140625 446.3825293 -109.8203125 446.57958984 C-89.944919 451.77139936 -69.4543501 452.5420915 -49 452 C-48.30003906 451.98598145 -47.60007812 451.97196289 -46.87890625 451.95751953 C-31.22572246 451.58754906 -15.66438223 448.53274365 -0.8125 443.63671875 C2.33086326 442.92509623 3.99890967 442.81562322 7 444 C8.7734375 446.22265625 8.7734375 446.22265625 10.375 449.0625 C13.10847118 453.67635904 16.03497937 457.55126391 19.71484375 461.44140625 C21 463 21 463 21 465 C1.0882294 471.83637457 1.0882294 471.83637457 -9 474 C-10.77503906 474.38285156 -10.77503906 474.38285156 -12.5859375 474.7734375 C-59.15538995 484.16169039 -106.82642693 478.78611494 -151 462 C-151.72396973 461.72542969 -152.44793945 461.45085937 -153.19384766 461.16796875 C-169.48015046 454.86739751 -184.8128948 446.12457007 -199 436 C-199.9600293 435.32396729 -199.9600293 435.32396729 -200.93945312 434.63427734 C-211.80769837 426.93816772 -221.48072783 418.29385664 -231 409 C-232.04404996 407.99586405 -233.08830447 406.99194071 -234.1328125 405.98828125 C-252.74606178 387.81573564 -266.80340545 366.19220869 -278.07763672 342.88989258 C-279.04295 340.91199685 -280.03389558 338.94827266 -281.02734375 336.984375 C-290.75877506 317.51916122 -297.93066662 295.55456675 -301 274 C-301.10006348 273.31067383 -301.20012695 272.62134766 -301.30322266 271.91113281 C-305.47757107 241.65861094 -304.28578622 209.64694925 -297 180 C-296.79890625 179.08605469 -296.5978125 178.17210937 -296.390625 177.23046875 C-294.84281964 170.4824149 -292.73945157 163.94091122 -290.5625 157.375 C-290.1298584 156.06873657 -290.1298584 156.06873657 -289.68847656 154.73608398 C-279.59450469 124.78479398 -262.90283053 97.61420825 -242 74 C-241.21753906 73.10667969 -240.43507812 72.21335937 -239.62890625 71.29296875 C-231.39736936 62.00574082 -222.78491862 53.64446767 -213 46 C-212.41863281 45.54222168 -211.83726562 45.08444336 -211.23828125 44.61279297 C-196.2300712 32.84928242 -180.28161934 23.05499207 -163 15 C-162.35353516 14.69610352 -161.70707031 14.39220703 -161.04101562 14.07910156 C-111.35063157 -9.08502274 -52.99188273 -13.61952296 0 0 Z " fill="#FBFBFB" transform="translate(418,62)"/>
<path d="M0 0 C1.70349609 0.61875 1.70349609 0.61875 3.44140625 1.25 C25.31530491 9.70182473 41.34874594 26.58006826 51.1328125 47.64453125 C56.75142006 60.41956099 58.4312543 72.35540349 58.5 86.3125 C58.50644531 87.5514502 58.51289062 88.79040039 58.51953125 90.06689453 C58.2758376 107.68547706 53.76720289 123.00515783 43 137 C42.278125 138.010625 41.55625 139.02125 40.8125 140.0625 C26.22029423 156.66581105 4.56200958 161.99720145 -16.5 163.6875 C-18.99910616 163.81127027 -21.49927458 163.91501139 -24 164 C-24.65403809 164.02723145 -25.30807617 164.05446289 -25.98193359 164.08251953 C-51.7318563 165.06742155 -77.61950435 159.93922461 -97 142 C-111.03115094 128.15772994 -116.24399927 110.60192744 -116.43188477 91.3215332 C-116.4366679 89.73519491 -116.43848808 88.1488452 -116.4375 86.5625 C-116.4375705 85.75597992 -116.43764099 84.94945984 -116.43771362 84.11849976 C-116.397407 72.15992721 -116.00640769 61.05789606 -111 50 C-110.67290039 49.27345215 -110.34580078 48.5469043 -110.00878906 47.79833984 C-105.77568101 38.69657446 -100.81651498 30.41986 -94 23 C-93.26394531 22.17242187 -92.52789062 21.34484375 -91.76953125 20.4921875 C-69.7167513 -3.03557447 -30.14066798 -12.67413108 0 0 Z " fill="#55B699" transform="translate(551,371)"/>
<path d="M0 0 C4.30860898 2.36476052 7.110027 5.46936379 9 10 C9.51413918 15.44987526 8.79894112 19.27678687 6 24 C2.47443433 27.00943556 -0.9107632 28.75368395 -5.4375 29.77734375 C-9.65597721 31.22513253 -11.61391653 33.33166616 -14.25 36.75 C-14.71543213 37.32564697 -15.18086426 37.90129395 -15.66040039 38.49438477 C-17.12536457 40.31580469 -18.56502411 42.1548915 -20 44 C-20.90989252 45.1603631 -21.82004428 46.32052297 -22.73046875 47.48046875 C-24.09134301 49.21668883 -25.45042825 50.95414316 -26.80371094 52.69628906 C-30.08617992 56.90333176 -33.50245096 60.97069282 -37 65 C-45.09313371 74.33157077 -52.65295958 84.07156699 -60 94 C-58.83687329 95.19096751 -57.66923328 96.37752704 -56.5 97.5625 C-55.52546875 98.55443359 -55.52546875 98.55443359 -54.53125 99.56640625 C-52.47307617 101.54517522 -50.3853568 103.42683911 -48.23046875 105.296875 C-43.98467528 108.98489551 -39.89154715 112.81689211 -35.8125 116.6875 C-28.59152707 123.51338266 -21.31889995 130.27934057 -14 137 C-14.26465884 140.19796093 -15.09641334 141.0905012 -17.484375 143.33203125 C-18.56222182 144.1727484 -19.65159505 144.99882583 -20.75 145.8125 C-21.33128662 146.24828369 -21.91257324 146.68406738 -22.51147461 147.13305664 C-32.01690681 154.09602577 -41.42752255 158.70034102 -53 161 C-53.66974854 161.16628906 -54.33949707 161.33257812 -55.02954102 161.50390625 C-74.43711918 166.24210517 -94.13198461 162.1724428 -111.9609375 153.9765625 C-114.82980613 152.71223367 -114.82980613 152.71223367 -116.95336914 153.71020508 C-119.23369262 155.14727402 -120.91421353 156.72033567 -122.78515625 158.66015625 C-123.48060547 159.37107422 -124.17605469 160.08199219 -124.89257812 160.81445312 C-125.96668945 161.92723633 -125.96668945 161.92723633 -127.0625 163.0625 C-128.48615365 164.53713498 -129.91434578 166.00740572 -131.34765625 167.47265625 C-131.97679932 168.12500244 -132.60594238 168.77734863 -133.25415039 169.44946289 C-135 171 -135 171 -138 172 C-138.8353125 171.14728516 -138.8353125 171.14728516 -139.6875 170.27734375 C-140.450625 169.50519531 -141.21375 168.73304688 -142 167.9375 C-142.7425 167.18339844 -143.485 166.42929687 -144.25 165.65234375 C-147.05268925 162.94918182 -149.9543634 160.40468635 -152.89453125 157.85375977 C-157.02987906 154.21279317 -161.00047264 150.39408354 -165 146.60546875 C-169.57362668 142.29089514 -174.25078515 138.11981621 -179 134 C-180.66878324 132.52322165 -182.33591759 131.04457339 -184 129.5625 C-184.763125 128.88316406 -185.52625 128.20382813 -186.3125 127.50390625 C-186.869375 127.00761719 -187.42625 126.51132813 -188 126 C-186.52463896 122.52323305 -184.58966633 120.43812029 -181.83203125 117.8828125 C-181.02185547 117.11066406 -180.21167969 116.33851563 -179.37695312 115.54296875 C-177.66498448 113.92878963 -175.94354613 112.32459621 -174.21289062 110.73046875 C-173.40658203 109.95574219 -172.60027344 109.18101562 -171.76953125 108.3828125 C-171.02292236 107.68559082 -170.27631348 106.98836914 -169.50708008 106.27001953 C-167.68572135 104.02324522 -167.68572135 104.02324522 -168.1965332 100.90966797 C-169.05037725 97.81756424 -170.13056505 94.95647577 -171.375 92 C-178.63292679 73.29769009 -179.83287553 53.02238806 -173 34 C-172.77505859 33.36481445 -172.55011719 32.72962891 -172.31835938 32.07519531 C-168.94064776 22.67250223 -164.54209598 14.31314398 -159 6 C-155.49172085 7.52079073 -153.04728354 9.5995673 -150.25 12.1875 C-147.30057318 14.89292489 -144.35029668 17.58177506 -141.3125 20.1875 C-136.64441652 24.24958481 -132.15594529 28.50352358 -127.64111328 32.73388672 C-121.74829741 38.25040904 -115.76060867 43.65364082 -109.73046875 49.01953125 C-105.76040196 52.56823109 -101.8326719 56.14733757 -97.98828125 59.83203125 C-97.27945801 60.5079834 -96.57063477 61.18393555 -95.84033203 61.88037109 C-94.42787553 63.23003751 -93.02107955 64.58565804 -91.62060547 65.94775391 C-86.92308319 70.43464025 -86.92308319 70.43464025 -81 73 C-79.60201172 71.78376953 -79.60201172 71.78376953 -78.17578125 70.54296875 C-67.176968 60.98509881 -56.11699766 51.52172258 -44.8203125 42.31640625 C-40.53878025 38.79985691 -36.30053427 35.23637285 -32.10546875 31.6171875 C-30.17020226 29.95633785 -28.24502229 28.45073544 -26.17578125 26.9453125 C-23.70789475 25.07793214 -21.78701548 23.53008569 -20 21 C-19.5620832 17.82089248 -19.6798938 14.97228576 -19.9296875 11.77734375 C-20.0309965 7.77563811 -18.70892068 5.85534882 -16 3 C-11.53922222 -1.05525253 -5.6979294 -1.01894303 0 0 Z " fill="#6342DF" transform="translate(562,105)"/>
<path d="M0 0 C4.78544497 3.03127113 9.0024635 6.44713203 13.25 10.1875 C13.90967773 10.76338867 14.56935547 11.33927734 15.24902344 11.93261719 C18.94850312 15.16988759 22.61167953 18.44402611 26.25 21.75 C30.46953333 25.57831832 34.85269142 29.16734587 39.28125 32.75 C42.78477678 35.64947043 46.12893893 38.70551573 49.48828125 41.76953125 C51.99458744 43.99519351 54.56924393 46.09521561 57.1875 48.1875 C62.59727887 52.55693678 67.65568566 57.25341759 72.69799805 62.03979492 C75.54878854 64.74080524 78.40694872 67.37421566 81.44921875 69.859375 C82.29097656 70.56578125 83.13273438 71.2721875 84 72 C84 72.33 84 72.66 84 73 C76.63293887 73.13735026 69.39751985 72.72931999 62.0625 72.0625 C61.03576172 71.97548828 60.00902344 71.88847656 58.95117188 71.79882812 C51.3878697 71.1292899 51.3878697 71.1292899 48 70 C48.2165625 71.08539063 48.433125 72.17078125 48.65625 73.2890625 C48.93779326 74.7343179 49.21902686 76.17963365 49.5 77.625 C49.64308594 78.33785156 49.78617187 79.05070312 49.93359375 79.78515625 C50.72637131 83.9000493 51.3461484 87.79058819 51 92 C48.50334565 95.66696107 45.67968695 98.31850269 42.31738281 101.18164062 C37.96335819 104.96891468 33.93918597 109.01754354 29.921875 113.15625 C28.41725798 114.68808103 26.91203233 116.21931445 25.40625 117.75 C23.06098836 120.13876565 20.7198482 122.53107456 18.38867188 124.93359375 C16.11933814 127.26917159 13.83470955 129.58881152 11.546875 131.90625 C10.84890808 132.6331604 10.15094116 133.3600708 9.43182373 134.10900879 C8.77724182 134.76719604 8.12265991 135.4253833 7.44824219 136.10351562 C6.87724792 136.68862915 6.30625366 137.27374268 5.71795654 137.87658691 C4 139 4 139 1.9006958 138.78112793 C-0.59146321 137.75692668 -1.91347878 136.34053304 -3.75 134.375 C-6.32048938 131.69583184 -8.89541271 129.18537568 -11.75 126.8125 C-16.63358641 122.62244065 -20.84850441 117.83315814 -25.17578125 113.0859375 C-29.36005584 108.49691135 -33.64618592 104.12445335 -38.390625 100.11328125 C-44.55738442 94.73967417 -50.24129033 88.86464998 -56 83.0625 C-57.16773374 81.88973991 -58.33570074 80.71721202 -59.50390625 79.54492188 C-62.33863234 76.69928311 -65.17018824 73.85052547 -68 71 C-66.5846017 68.0510636 -65.22500776 65.97739128 -62.875 63.6875 C-62.33617187 63.15511719 -61.79734375 62.62273437 -61.2421875 62.07421875 C-59.99932838 60.9244658 -58.74443652 59.78611365 -57.44604492 58.69946289 C-52.88650271 54.85417468 -48.74053543 50.72053387 -44.62890625 46.41015625 C-43.46583222 45.20214899 -42.3024152 43.99447188 -41.13867188 42.78710938 C-39.33872293 40.91915415 -37.54692761 39.04584705 -35.77514648 37.15112305 C-34.03893053 35.29946149 -32.27500881 33.47839645 -30.50390625 31.66015625 C-29.98486221 31.09152359 -29.46581818 30.52289093 -28.93104553 29.93702698 C-25.82614148 26.8085219 -23.80051322 25.65183535 -19.32666016 25.60742188 C-15.4033398 25.84211314 -11.63855787 26.53394509 -7.8125 27.4375 C-3.5511312 28.42751497 0.67665881 29.32427292 5 30 C4.84853516 29.30438965 4.69707031 28.6087793 4.54101562 27.89208984 C3.85430427 24.72106812 3.17707291 21.54809306 2.5 18.375 C2.14228516 16.73337891 2.14228516 16.73337891 1.77734375 15.05859375 C1.43896484 13.46337891 1.43896484 13.46337891 1.09375 11.8359375 C0.88427734 10.86188965 0.67480469 9.8878418 0.45898438 8.88427734 C-0.01976189 5.87581547 -0.07888771 3.04112122 0 0 Z " fill="#6342DF" transform="translate(268,303)"/>
<path d="M0 0 C3.93431399 3.21730499 7.17543541 6.20903545 10.3125 10.25 C13.92638407 14.77494728 17.74995035 18.85771017 21.890625 22.8984375 C24.42162317 25.4200616 26.7428677 28.07695435 29.0703125 30.78515625 C31.41924021 33.48119271 33.83007611 36.11790569 36.25 38.75 C36.71543213 39.25660156 37.18086426 39.76320312 37.66040039 40.28515625 C39.59648039 42.39087059 41.53439536 44.49488764 43.47314453 46.59814453 C45.83376979 49.15974088 48.1904044 51.72463942 50.53515625 54.30078125 C52.02869017 55.93633107 53.53348081 57.56182514 55.05859375 59.16796875 C56.75 61 56.75 61 59 64 C58.82250166 68.00897863 56.32800457 70.03119024 53.58984375 72.73828125 C52.68169922 73.64126953 51.77355469 74.54425781 50.83789062 75.47460938 C50.3606958 75.9414917 49.88350098 76.40837402 49.3918457 76.8894043 C47.960103 78.29038268 46.53951651 79.70273306 45.11914062 81.11523438 C40.51579207 85.66682356 35.84240793 90.06037839 30.93237305 94.27709961 C26.49072912 98.23726148 22.41141497 102.59245389 18.26757812 106.859375 C14.09382708 111.09768816 9.95630823 114.70447837 5 118 C-6.92958967 106.24670969 -6.92958967 106.24670969 -12.11328125 100.171875 C-14.58037232 97.33191095 -17.13167081 94.57229272 -19.6875 91.8125 C-20.45791626 90.98032959 -20.45791626 90.98032959 -21.24389648 90.13134766 C-22.30066172 88.99062384 -23.3577124 87.8501644 -24.41503906 86.70996094 C-27.96321136 82.88195743 -31.50226265 79.04554035 -35.0390625 75.20703125 C-37.02609346 73.05124055 -39.02178733 70.90393788 -41.0234375 68.76171875 C-45.71308426 63.72403044 -50.20557128 58.75706426 -54 53 C-52.50341097 51.47580995 -51.00251195 49.95585169 -49.5 48.4375 C-48.6646875 47.59058594 -47.829375 46.74367187 -46.96875 45.87109375 C-44.84081949 43.76629691 -42.62914044 41.80142232 -40.35546875 39.85546875 C-35.82424285 35.90413726 -31.57881664 31.70576716 -27.34375 27.44140625 C-26.16214294 26.25767677 -26.16214294 26.25767677 -24.95666504 25.05003357 C-22.46872898 22.55654988 -19.98431376 20.05959216 -17.5 17.5625 C-15.8023159 15.85979413 -14.10440142 14.15731793 -12.40625 12.45507812 C-8.2681672 8.30603588 -4.13296065 4.15414424 0 0 Z " fill="#E7EAB1" transform="translate(255,151)"/>
<path d="M0 0 C2.26262914 1.01822515 3.4487609 2.08859863 5.11547852 3.92211914 C5.70224365 4.55851318 6.28900879 5.19490723 6.89355469 5.85058594 C7.51721924 6.54321533 8.14088379 7.23584473 8.78344727 7.94946289 C10.12955915 9.41583118 11.47592036 10.88197061 12.82250977 12.34790039 C13.50990234 13.10167969 14.19729492 13.85545898 14.90551758 14.63208008 C18.1228702 18.14454684 21.39236937 21.60737606 24.65844727 25.07446289 C29.27085048 29.98569617 33.85238765 34.92346262 38.40844727 39.88696289 C42.19186035 44.00855815 46.06065063 48.01684652 50.05273438 51.93676758 C51.85372564 53.76778682 53.53269841 55.65048566 55.20141602 57.60180664 C57.71313699 60.49547747 60.29157965 63.2884695 62.97094727 66.02758789 C63.6296582 66.70563477 64.28836914 67.38368164 64.96704102 68.08227539 C66.3260462 69.4757193 67.69355216 70.86091341 69.06860352 72.23852539 C69.71700195 72.91141602 70.36540039 73.58430664 71.03344727 74.27758789 C71.62254883 74.87603516 72.21165039 75.47448242 72.81860352 76.09106445 C73.97094727 77.88696289 73.97094727 77.88696289 73.73876953 80.0078125 C72.80831296 82.28499031 71.68624607 83.5026572 69.90844727 85.19946289 C69.27938477 85.80274414 68.65032227 86.40602539 68.00219727 87.02758789 C65.34488118 89.46005416 62.63363956 91.82463834 59.90454102 94.17602539 C57.13249832 96.62886317 54.55523025 99.23807283 51.97094727 101.88696289 C53.78917905 105.98257589 56.4954879 108.82167011 59.51000977 112.08227539 C60.97094727 113.88696289 60.97094727 113.88696289 60.97094727 115.88696289 C59.67797852 117.15649414 59.67797852 117.15649414 57.78344727 118.69946289 C54.92682195 121.09616642 52.26082955 123.58142729 49.68579102 126.27368164 C48.82860474 127.16446411 48.82860474 127.16446411 47.95410156 128.07324219 C46.80603871 129.27467322 45.66796646 130.48573755 44.54052734 131.70654297 C42.92407227 133.38696289 42.92407227 133.38696289 39.97094727 135.88696289 C36.08747844 135.45469582 34.36754301 133.60338842 31.72094727 130.82446289 C31.01454102 130.09098633 30.30813477 129.35750977 29.58032227 128.60180664 C29.04922852 128.0359082 28.51813477 127.47000977 27.97094727 126.88696289 C24.64250765 128.33039991 22.51498737 130.13035218 20.00219727 132.73071289 C18.89811523 133.85799805 18.89811523 133.85799805 17.77172852 135.00805664 C17.0124707 135.7930957 16.25321289 136.57813477 15.47094727 137.38696289 C13.96533115 138.94370349 12.4550827 140.49598047 10.93969727 142.04321289 C10.27389648 142.7322168 9.6080957 143.4212207 8.92211914 144.13110352 C7.0178914 145.84471787 5.30967327 146.87273277 2.97094727 147.88696289 C-11.16477912 133.92768801 -11.16477912 133.92768801 -16.45874023 127.67602539 C-18.85610368 124.94470087 -21.46787455 122.43949093 -24.05639648 119.89086914 C-26.60243103 117.30450138 -28.9492683 114.57161009 -31.31420898 111.82055664 C-33.52952653 109.32264733 -35.89803444 107.006713 -38.27905273 104.66821289 C-40.73540122 102.16800104 -42.99214641 99.51015773 -45.27905273 96.85571289 C-46.96703559 94.95673218 -48.71675007 93.16690301 -50.52905273 91.38696289 C-53.61610135 88.35504014 -56.439028 85.1541474 -59.25952148 81.87524414 C-61.57575658 79.27267535 -64.04035265 76.84632841 -66.54858398 74.42993164 C-68.02905273 72.88696289 -68.02905273 72.88696289 -70.02905273 69.88696289 C-69.71113439 66.51565872 -68.35841123 64.84136817 -66.00976562 62.49536133 C-65.37563248 61.85499939 -64.74149933 61.21463745 -64.08815002 60.55487061 C-63.39962448 59.87555481 -62.71109894 59.19623901 -62.00170898 58.49633789 C-61.29759384 57.79172424 -60.5934787 57.0871106 -59.86802673 56.36114502 C-58.37947663 54.87493406 -56.88723558 53.392412 -55.39160156 51.91333008 C-53.09514409 49.64051727 -50.81234552 47.35462685 -48.53100586 45.06665039 C-47.08453178 43.62575118 -45.63729203 42.18562011 -44.18920898 40.74633789 C-43.50270767 40.05892517 -42.81620636 39.37151245 -42.10890198 38.66326904 C-41.47161667 38.03551575 -40.83433136 37.40776245 -40.17773438 36.76098633 C-39.61671524 36.20457458 -39.05569611 35.64816284 -38.47767639 35.07489014 C-37.02905273 33.88696289 -37.02905273 33.88696289 -35.02905273 33.88696289 C-34.63073242 32.99944336 -34.63073242 32.99944336 -34.22436523 32.09399414 C-32.99567694 29.82533766 -31.74517517 28.36848684 -29.90405273 26.57446289 C-29.36522461 26.04208008 -28.82639648 25.50969727 -28.27124023 24.96118164 C-26.31683433 23.15318593 -24.3226881 21.42097082 -22.30249023 19.68774414 C-19.36134633 17.12861558 -16.59254629 14.47648392 -13.88842773 11.66821289 C-12.87135742 10.6124707 -12.87135742 10.6124707 -11.83374023 9.53540039 C-10.44085673 8.07896327 -9.0556493 6.61515328 -7.67749023 5.14477539 C-6.6681543 4.10450195 -6.6681543 4.10450195 -5.63842773 3.04321289 C-5.03998047 2.4122168 -4.4415332 1.7812207 -3.82495117 1.13110352 C-2.02905273 -0.11303711 -2.02905273 -0.11303711 0 0 Z M-3.68995667 15.43434143 C-4.4097319 16.15935349 -5.12950714 16.88436554 -5.87109375 17.63134766 C-6.68606827 18.4496254 -7.50104279 19.26790314 -8.3407135 20.11097717 C-9.67337502 21.4560862 -9.67337502 21.4560862 -11.03295898 22.82836914 C-12.4266407 24.2278384 -13.82032541 25.6273047 -15.21417904 27.02660275 C-18.16833035 29.99391605 -21.11806348 32.9656214 -24.06842041 35.93670654 C-26.48139116 38.36633438 -28.89538178 40.7949281 -31.31199646 43.22093201 C-33.12529206 45.04170277 -34.93633206 46.86472354 -36.74476624 48.69032288 C-41.15213327 53.11508277 -45.61034643 57.38681116 -50.38414001 61.4158783 C-52.55821758 63.36020761 -54.31680877 65.53262743 -56.02905273 67.88696289 C-55.24401367 68.73258789 -54.45897461 69.57821289 -53.65014648 70.44946289 C-52.58889112 71.59524302 -51.52769649 72.7410794 -50.46655273 73.88696289 C-49.95286133 74.4399707 -49.43916992 74.99297852 -48.90991211 75.56274414 C-46.08517918 78.61556109 -43.30734962 81.69996183 -40.57983398 84.84008789 C-37.0746768 88.86479663 -33.44517155 92.7590966 -29.77905273 96.63696289 C-22.62395748 104.23825562 -15.48315475 111.85403937 -8.56420898 119.67211914 C-7.78948242 120.54739258 -7.01475586 121.42266602 -6.21655273 122.32446289 C-5.55010742 123.08629883 -4.88366211 123.84813477 -4.19702148 124.63305664 C-1.6329897 127.29872572 1.09587817 129.56147904 3.97094727 131.88696289 C12.16105942 124.33921248 20.2612125 116.73570088 28.04956055 108.77124023 C31.52153529 105.24433921 35.13868191 101.96556084 38.88085938 98.72802734 C42.54487707 95.50055889 46.04637854 92.11595616 49.53344727 88.69946289 C50.26885742 88.00143555 51.00426758 87.3034082 51.76196289 86.58422852 C52.4509668 85.90682617 53.1399707 85.22942383 53.84985352 84.53149414 C54.47448486 83.92668213 55.09911621 83.32187012 55.74267578 82.69873047 C57.20397388 80.95897658 57.20397388 80.95897658 56.7644043 78.78735352 C55.6922808 76.21953528 54.18450538 74.60905188 52.28344727 72.57446289 C51.47520508 71.70176758 50.66696289 70.82907227 49.83422852 69.92993164 C48.8800714 68.91535476 47.925623 67.90105179 46.97094727 66.88696289 C45.83889882 65.67522573 44.70741729 64.46295876 43.57641602 63.25024414 C41.76465688 61.30833132 39.95228262 59.3670208 38.13745117 57.42797852 C33.34746034 52.30724095 28.63920913 47.11893939 23.97094727 41.88696289 C22.49266492 40.24033522 21.01348037 38.59451711 19.53344727 36.94946289 C18.79610352 36.12961914 18.05875977 35.30977539 17.29907227 34.46508789 C14.80323836 31.70124497 12.29369667 28.95021523 9.78344727 26.19946289 C6.93534134 23.07630624 4.13223287 19.93151471 1.40844727 16.69946289 C0.60407227 15.77133789 -0.20030273 14.84321289 -1.02905273 13.88696289 C-2.2854441 13.77335304 -2.2854441 13.77335304 -3.68995667 15.43434143 Z " fill="#6143DB" transform="translate(257.029052734375,137.113037109375)"/>
<path d="M0 0 C3.45430457 1.40701966 4.8323917 2.82824058 6.6640625 6.05078125 C7.14149902 6.88383789 7.61893555 7.71689453 8.11083984 8.57519531 C8.6105127 9.47850586 9.11018555 10.38181641 9.625 11.3125 C10.14916504 12.24803711 10.67333008 13.18357422 11.21337891 14.14746094 C33.78322376 54.94653337 43.88452066 97.44699732 43 144 C39.63399323 142.37928064 36.85066696 140.45612073 33.875 138.1875 C29.43895895 134.87684386 25.15388311 132.48493733 19.99609375 130.49609375 C16.90469543 128.17905743 16.7246666 125.71818466 16 122 C15.8108768 119.44143328 15.69031107 116.87721552 15.625 114.3125 C15.2129603 104.30438967 13.19187147 94.74823319 11 85 C10.77441406 83.93394531 10.54882812 82.86789063 10.31640625 81.76953125 C5.58220406 60.92139861 -3.19554159 40.08592075 -15.015625 22.27734375 C-16 20 -16 20 -15.44140625 18.03125 C-13.61361896 15.45550639 -11.69829965 12.99911605 -9.6875 10.5625 C-8.92824219 9.63566406 -8.16898438 8.70882812 -7.38671875 7.75390625 C-5.03419562 5.03945648 -2.57080365 2.50710232 0 0 Z " fill="#FBFBFB" transform="translate(560,162)"/>
<path d="M0 0 C4.30860898 2.36476052 7.110027 5.46936379 9 10 C9.51413918 15.44987526 8.79894112 19.27678687 6 24 C2.47443433 27.00943556 -0.9107632 28.75368395 -5.4375 29.77734375 C-9.65597721 31.22513253 -11.61391653 33.33166616 -14.25 36.75 C-14.71543213 37.32564697 -15.18086426 37.90129395 -15.66040039 38.49438477 C-17.12536457 40.31580469 -18.56502411 42.1548915 -20 44 C-20.90989252 45.1603631 -21.82004428 46.32052297 -22.73046875 47.48046875 C-24.09134301 49.21668883 -25.45042825 50.95414316 -26.80371094 52.69628906 C-30.55771304 57.50768171 -34.50556985 62.12750336 -38.50610352 66.734375 C-42.57538079 71.44470733 -46.434842 76.29663409 -50.25317383 81.21142578 C-53.39199641 85.24763489 -56.62062721 89.16395521 -60 93 C-65.54679693 92.10350089 -68.83280163 87.86030524 -72.75 84.125 C-73.54277344 83.39152344 -74.33554687 82.65804687 -75.15234375 81.90234375 C-75.90128906 81.19464844 -76.65023438 80.48695313 -77.421875 79.7578125 C-78.10862305 79.1095752 -78.79537109 78.46133789 -79.50292969 77.79345703 C-81 76 -81 76 -81 73 C-78.82138187 70.87863462 -76.64610835 68.93769806 -74.3125 67 C-73.63348633 66.42475586 -72.95447266 65.84951172 -72.25488281 65.25683594 C-70.852885 64.07053009 -69.44774032 62.88793376 -68.03955078 61.70898438 C-66.18356147 60.15381019 -64.33747634 58.58804159 -62.49609375 57.015625 C-56.66429947 52.04147303 -50.76235542 47.15839166 -44.8203125 42.31640625 C-40.53878025 38.79985691 -36.30053427 35.23637285 -32.10546875 31.6171875 C-30.17020226 29.95633785 -28.24502229 28.45073544 -26.17578125 26.9453125 C-23.70789475 25.07793214 -21.78701548 23.53008569 -20 21 C-19.5620832 17.82089248 -19.6798938 14.97228576 -19.9296875 11.77734375 C-20.0309965 7.77563811 -18.70892068 5.85534882 -16 3 C-11.53922222 -1.05525253 -5.6979294 -1.01894303 0 0 Z " fill="#381E9A" transform="translate(562,105)"/>
<path d="M0 0 C9.99754779 -0.20813561 19.78698512 0.32472847 29.73510742 1.22680664 C32.09042622 1.44002809 34.44644411 1.64352685 36.80273438 1.84570312 C38.31775733 1.97860934 39.83273327 2.11205277 41.34765625 2.24609375 C42.39144188 2.33678383 42.39144188 2.33678383 43.45631409 2.42930603 C47.02772206 2.75630516 50.49940248 3.21584248 54 4 C54.34268571 6.5823816 54.6741828 9.16547707 55 11.75 C55.09539062 12.46027344 55.19078125 13.17054688 55.2890625 13.90234375 C56.07885679 20.27711198 56.09809817 26.58274473 56 33 C56.76666992 33.05534912 57.53333984 33.11069824 58.32324219 33.16772461 C61.79910225 33.4207011 65.27454354 33.67904042 68.75 33.9375 C69.9565625 34.02451172 71.163125 34.11152344 72.40625 34.20117188 C73.56640625 34.28818359 74.7265625 34.37519531 75.921875 34.46484375 C76.99018555 34.543396 78.05849609 34.62194824 79.15917969 34.70288086 C81.5456173 34.95247647 83.70045822 35.33779018 86 36 C84.51176739 39.45690288 82.5424581 41.71510536 79.89453125 44.37109375 C78.66573242 45.60375977 78.66573242 45.60375977 77.41210938 46.86132812 C76.55423828 47.71146484 75.69636719 48.56160156 74.8125 49.4375 C73.55469727 50.7069043 73.55469727 50.7069043 72.27148438 52.00195312 C67.76140124 56.49795325 63.32017983 60.49400869 58 64 C46.07041033 52.24670969 46.07041033 52.24670969 40.88671875 46.171875 C38.41962768 43.33191095 35.86832919 40.57229272 33.3125 37.8125 C32.54208374 36.98032959 32.54208374 36.98032959 31.75610352 36.13134766 C30.69933828 34.99062384 29.6422876 33.8501644 28.58496094 32.70996094 C25.53420627 29.41860455 22.48928541 26.12184488 19.44848633 22.82128906 C16.95487926 20.11471802 14.45505795 17.41453903 11.94140625 14.7265625 C10.96090543 13.67190481 9.98043548 12.61721843 9 11.5625 C8.13375 10.63566406 7.2675 9.70882812 6.375 8.75390625 C3.95063409 5.94275828 1.98888821 3.12605346 0 0 Z " fill="#F1F2EF" transform="translate(202,205)"/>
<path d="M0 0 C0.63292969 0.1453418 1.26585937 0.29068359 1.91796875 0.44042969 C19.06094234 4.53025339 33.62566254 12.63086731 47 24 C47.77730469 24.64066406 48.55460938 25.28132813 49.35546875 25.94140625 C52.72914246 28.95145046 53.88358606 30.21097216 54.5625 34.8125 C54 38 54 38 52 40 C47.82672051 40.51918761 45.75872948 40.54492565 42.296875 38.05859375 C41.45640625 37.19363281 40.6159375 36.32867187 39.75 35.4375 C22.4447712 18.67675856 0.55182787 11.55787754 -23.125 11.625 C-23.8118689 11.62521149 -24.49873779 11.62542297 -25.2064209 11.62564087 C-40.15097111 11.67161002 -52.66937831 13.89864078 -66 21 C-66.82757813 21.44085938 -67.65515625 21.88171875 -68.5078125 22.3359375 C-76.2917415 26.75252417 -83.43793084 32.27914618 -89.62890625 38.74609375 C-92 41 -92 41 -95.125 41.5 C-98 41 -98 41 -99.875 39.875 C-101.55042086 37.0826319 -101.36338603 35.21577103 -101 32 C-88.04536499 14.2165832 -64.06741768 3.16572365 -43 -1 C-29.09888775 -3.18267745 -13.70436801 -3.15998777 0 0 Z " fill="#57B89C" transform="translate(545,299)"/>
<path d="M0 0 C2.39572682 3.10121693 4.51048561 6.32705369 6.625 9.625 C10.58952535 15.60464321 15.04110616 20.82968046 20 26 C20.804375 26.845625 21.60875 27.69125 22.4375 28.5625 C23.7059375 29.7690625 23.7059375 29.7690625 25 31 C26.02287109 31.99773437 26.02287109 31.99773437 27.06640625 33.015625 C33.54798501 39.13307012 40.34708889 43.52417401 48 48 C49.485 48.99 49.485 48.99 51 50 C47.90397913 53.15394039 44.79685793 56.29671173 41.6875 59.4375 C40.80642578 60.33533203 39.92535156 61.23316406 39.01757812 62.15820312 C37.74624023 63.43920898 37.74624023 63.43920898 36.44921875 64.74609375 C35.66893311 65.53685303 34.88864746 66.3276123 34.0847168 67.14233398 C32 69 32 69 29 70 C28.443125 69.43152344 27.88625 68.86304688 27.3125 68.27734375 C26.549375 67.50519531 25.78625 66.73304688 25 65.9375 C24.2575 65.18339844 23.515 64.42929687 22.75 63.65234375 C19.94731075 60.94918182 17.0456366 58.40468635 14.10546875 55.85375977 C9.97012094 52.21279317 5.99952736 48.39408354 2 44.60546875 C-2.57362668 40.29089514 -7.25078515 36.11981621 -12 32 C-13.66878324 30.52322165 -15.33591759 29.04457339 -17 27.5625 C-17.763125 26.88316406 -18.52625 26.20382813 -19.3125 25.50390625 C-20.1478125 24.75947266 -20.1478125 24.75947266 -21 24 C-19.52028789 20.55106156 -17.57640468 18.35517546 -14.90234375 15.7421875 C-13.70061523 14.55689453 -13.70061523 14.55689453 -12.47460938 13.34765625 C-11.21874023 12.12369141 -11.21874023 12.12369141 -9.9375 10.875 C-8.27777378 9.24961294 -6.62011253 7.62211373 -4.96484375 5.9921875 C-4.2287085 5.27401855 -3.49257324 4.55584961 -2.73413086 3.81591797 C-0.92976993 2.10478455 -0.92976993 2.10478455 0 0 Z " fill="#371D98" transform="translate(395,207)"/>
<path d="M0 0 C4.78544497 3.03127113 9.0024635 6.44713203 13.25 10.1875 C13.90967773 10.76338867 14.56935547 11.33927734 15.24902344 11.93261719 C18.94850312 15.16988759 22.61167953 18.44402611 26.25 21.75 C30.46953333 25.57831832 34.85269142 29.16734587 39.28125 32.75 C42.78477678 35.64947043 46.12893893 38.70551573 49.48828125 41.76953125 C51.99458744 43.99519351 54.56924393 46.09521561 57.1875 48.1875 C62.59727887 52.55693678 67.65568566 57.25341759 72.69799805 62.03979492 C75.54878854 64.74080524 78.40694872 67.37421566 81.44921875 69.859375 C82.29097656 70.56578125 83.13273437 71.2721875 84 72 C84 72.33 84 72.66 84 73 C76.09192963 73.08146817 68.21068562 72.89946843 60.3125 72.5 C59.12849609 72.47164063 57.94449219 72.44328125 56.72460938 72.4140625 C55.57412109 72.34960938 54.42363281 72.28515625 53.23828125 72.21875 C52.20743408 72.17685547 51.17658691 72.13496094 50.11450195 72.09179688 C46.06675921 70.67284998 44.44770601 68.48472248 41.78852844 65.20541382 C37.16058071 59.49874478 31.72555014 54.41989088 26.55688477 49.20678711 C25.13680113 47.77001778 23.72212215 46.32788759 22.31274414 44.88061523 C20.26086764 42.77407273 18.19310924 40.68437012 16.12109375 38.59765625 C15.49593369 37.94982681 14.87077362 37.30199738 14.22666931 36.63453674 C10.63836068 33.06334136 8.30389615 31.18194923 3 31 C3.66 30.67 4.32 30.34 5 30 C4.84853516 29.30438965 4.69707031 28.6087793 4.54101562 27.89208984 C3.85430427 24.72106812 3.17707291 21.54809306 2.5 18.375 C2.26152344 17.28058594 2.02304687 16.18617188 1.77734375 15.05859375 C1.43896484 13.46337891 1.43896484 13.46337891 1.09375 11.8359375 C0.88427734 10.86188965 0.67480469 9.8878418 0.45898438 8.88427734 C-0.01976189 5.87581547 -0.07888771 3.04112122 0 0 Z " fill="#371D96" transform="translate(268,303)"/>
<path d="M0 0 C0.7425 0.185625 1.485 0.37125 2.25 0.5625 C5.09904885 1.01575777 6.27269324 0.70130745 9 0 C14.84260732 -0.38312179 18.78732802 -0.00731076 24 3 C27.56544907 6.65687084 28.27743822 9.60725411 28.4375 14.5625 C28.27784595 18.747717 27.96399578 21.81644898 25 25 C24.01 25 23.02 25 22 25 C22.33 24.360625 22.66 23.72125 23 23.0625 C24.64271211 18.03169417 24.51362089 13.194562 23.3125 8.0625 C21.47238932 5.1708975 20.35766032 4.76946382 17 4 C13.65904022 3.85162659 10.34148458 3.88321025 7 4 C7.7734375 5.1446875 7.7734375 5.1446875 8.5625 6.3125 C9.37575897 7.54116464 10.18810901 8.77043098 11 10 C11.59039062 10.88171875 12.18078125 11.7634375 12.7890625 12.671875 C13.41554688 13.62578125 14.04203125 14.5796875 14.6875 15.5625 C15.28949219 16.47128906 15.89148438 17.38007813 16.51171875 18.31640625 C17.98061183 20.96504023 18.44670051 23.05931566 19 26 C20.96758273 27.36020151 20.96758273 27.36020151 23 28 C22.73534116 31.19796093 21.90358666 32.0905012 19.515625 34.33203125 C18.43716097 35.17195651 17.34786506 35.99809751 16.25 36.8125 C15.67668945 37.24755859 15.10337891 37.68261719 14.51269531 38.13085938 C9.44149006 41.87974164 4.132324 44.81453734 -1.515625 47.625 C-4.11442534 48.7571786 -4.11442534 48.7571786 -5 51 C-6.3921875 50.7215625 -6.3921875 50.7215625 -7.8125 50.4375 C-11.01343771 49.75876119 -11.01343771 49.75876119 -14 51 C-19.26721247 51.50439554 -23.65121655 51.62622089 -28.5 49.375 C-32.52274444 45.55339278 -33.82530737 42.57223364 -34.4375 37.0625 C-34.26214668 32.50331364 -32.63062839 29.68287974 -30 26 C-29.01 25.67 -28.02 25.34 -27 25 C-27.875 29.875 -27.875 29.875 -29 31 C-29.55419529 35.90599112 -29.74119722 39.78937787 -27.125 44.0625 C-24.29111024 46.64634066 -22.74275915 47.15309964 -19 47.1875 C-18.29875 47.20167969 -17.5975 47.21585937 -16.875 47.23046875 C-14.75475062 47.16512323 -14.75475062 47.16512323 -13 45 C-13.45890625 44.50371094 -13.9178125 44.00742187 -14.390625 43.49609375 C-24 32.85714286 -24 32.85714286 -24 27 C-23.34 26.34 -22.68 25.68 -22 25 C-23.65 24.67 -25.3 24.34 -27 24 C-27.33 22.68 -27.66 21.36 -28 20 C-12.49616919 7.05211527 -12.49616919 7.05211527 -4.30078125 3.9921875 C-1.6798398 3.10950499 -1.6798398 3.10950499 0 0 Z " fill="#5C40DC" transform="translate(357,267)"/>
<path d="M0 0 C9.01945489 -0.16549459 17.16917213 -0.05624266 26 2 C26.83779436 11.70943816 27.12276617 21.26055028 27 31 C28.258125 30.95875 29.51625 30.9175 30.8125 30.875 C36.26956336 30.86711407 41.64067117 31.37510116 47.0625 31.9375 C47.92012939 32.02435059 48.77775879 32.11120117 49.66137695 32.20068359 C55.87434098 32.87434098 55.87434098 32.87434098 57 34 C57.29997524 36.14087788 57.53972197 38.29025113 57.75390625 40.44140625 C57.88603516 41.74658203 58.01816406 43.05175781 58.15429688 44.39648438 C58.29045954 45.78514694 58.42652599 47.17381895 58.5625 48.5625 C58.70206915 49.95511875 58.84203791 51.34769752 58.98242188 52.74023438 C59.32555986 56.15978192 59.66456409 59.57968973 60 63 C57.30313699 64.3484315 55.9531801 63.75762783 53 63.1875 C44.71422859 61.70212391 36.36759777 60.8739491 28 60 C27.66134102 56.47965794 27.33003905 52.95865982 27 49.4375 C26.90460938 48.44685547 26.80921875 47.45621094 26.7109375 46.43554688 C26.62070312 45.46552734 26.53046875 44.49550781 26.4375 43.49609375 C26.35371094 42.61107178 26.26992188 41.7260498 26.18359375 40.81420898 C25.97058897 37.54917427 26 34.27197536 26 31 C17.42 30.34 8.84 29.68 0 29 C0 19.43 0 9.86 0 0 Z " fill="#D7D473" transform="translate(230,178)"/>
<path d="M0 0 C2.0823483 0.02913231 4.16216037 0.02051964 6.24462891 0.00756836 C17.45463045 0.02319009 27.02779517 2.00976404 37.01416016 7.09155273 C37.69099854 7.43202637 38.36783691 7.7725 39.06518555 8.12329102 C45.35048513 11.42645953 52.69381967 15.95087175 55.95166016 22.46655273 C56.40180823 27.75579262 56.40180823 27.75579262 54.76416016 30.34155273 C52.27109742 31.88897098 50.85702711 31.82283131 47.95166016 31.46655273 C45.66259766 29.70874023 45.66259766 29.70874023 43.32666016 27.34155273 C31.650189 16.33972213 18.76856633 12.92444648 3.01416016 13.09155273 C1.37930664 13.07415039 1.37930664 13.07415039 -0.28857422 13.05639648 C-15.01730776 13.10890534 -27.54856656 17.13343476 -38.36083984 27.40405273 C-41.21137073 30.0582005 -41.84447291 30.43695915 -45.92333984 31.02905273 C-49.04833984 30.46655273 -49.04833984 30.46655273 -51.04833984 28.46655273 C-51.545412 24.80444973 -51.45253841 23.06074326 -49.35302734 19.97436523 C-35.47115751 6.36031282 -19.54994662 -0.29775007 0 0 Z " fill="#57B89C" transform="translate(519.04833984375,331.533447265625)"/>
<path d="M0 0 C1.70858216 0.14288854 3.4168564 0.28946089 5.125 0.4375 C6.55199219 0.55931641 6.55199219 0.55931641 8.0078125 0.68359375 C11 1 11 1 13.55664062 1.50927734 C18.08154499 2.15413396 22.52090527 2.16247697 27.0859375 2.16796875 C28.54780991 2.17296135 28.54780991 2.17296135 30.03921509 2.17805481 C32.10182221 2.18310744 34.16443747 2.18546365 36.22705078 2.18530273 C39.32989655 2.18746852 42.43237427 2.20558451 45.53515625 2.22460938 C56.86077967 2.25561701 67.80647215 1.80689379 79 0 C73.45387451 8.84456825 68.95276994 15.83620184 58.4296875 18.4921875 C57.62789062 18.65976562 56.82609375 18.82734375 56 19 C55.23381348 19.17128418 54.46762695 19.34256836 53.67822266 19.51904297 C42.01266909 21.61395095 24.92577082 22.13007961 14 17 C7.84372553 12.44528265 3.72440767 6.60782005 0 0 Z " fill="#56B69A" transform="translate(482,541)"/>
<path d="M0 0 C1.52071762 3.04143525 0.36592216 5.20035972 -0.4140625 8.47265625 C-2.20512384 16.68930809 -2.45845163 24.67543943 -2.39111328 33.06079102 C-2.37503464 35.43239016 -2.39106048 37.80228017 -2.41015625 40.17382812 C-2.42209731 50.42682101 -1.25770773 60.00317189 1 70 C-8.83753313 65.29865906 -15.90871819 58.49205527 -20.15234375 48.29296875 C-22.43793358 39.41392624 -22.83873858 28.12620775 -18.2578125 19.94140625 C-17.84273438 19.30074219 -17.42765625 18.66007812 -17 18 C-16.56429688 17.24589844 -16.12859375 16.49179687 -15.6796875 15.71484375 C-11.62091953 9.07221529 -6.44741136 4.29827424 0 0 Z " fill="#57B89C" transform="translate(428,419)"/>
<path d="M0 0 C11.20493269 5.28486621 16.88450365 12.89970948 21.25 24.25 C23.49379223 35.46896116 22.04322616 44.69816347 15.75 54.1875 C11.65160337 59.7588933 7.28218158 64.04367926 1 67 C1.2165625 65.26943359 1.2165625 65.26943359 1.4375 63.50390625 C3.63360256 44.75992691 4.41975005 26.02773118 0.65625 7.44921875 C0 4 0 4 0 0 Z " fill="#56B79B" transform="translate(615,421)"/>
<path d="M0 0 C4.52049994 2.45774754 7.55699234 5.73898468 9.875 10.375 C10.74814691 16.38724015 9.8920832 20.69813041 6.34765625 25.64453125 C3.45972077 29.03804694 0.96585152 31.11280319 -3.5546875 31.6796875 C-9.86320309 31.84816418 -14.03245943 31.27288563 -18.8125 26.9375 C-23.45449864 21.79366367 -23.67561994 18.3719077 -23.5703125 11.6171875 C-22.9029601 6.75839373 -20.95836869 4.29607958 -17.125 1.375 C-11.40663713 -2.39668615 -6.23187479 -2.79965803 0 0 Z " fill="#020F20" transform="translate(493.125,434.625)"/>
<path d="M0 0 C4.52966583 2.47551505 7.16586374 5.37259122 8.8125 10.3125 C9.20282004 16.16730059 8.77799032 20.0734671 5.8125 25.3125 C2.1588948 29.08302056 -1.08107323 31.453159 -6.375 31.5625 C-11.5112502 31.48005618 -15.80220595 30.51858802 -19.6953125 26.91796875 C-23.87599886 22.19976557 -24.5688225 18.55920322 -24.46484375 12.33203125 C-23.81429584 7.59494298 -20.57280758 4.50930836 -17.125 1.5 C-11.65504743 -2.57336894 -6.15469068 -2.8476927 0 0 Z " fill="#010F20" transform="translate(565.1875,434.6875)"/>
<path d="M0 0 C2 2 2 2 2.13525391 4.70556641 C2.08288574 5.82624512 2.03051758 6.94692383 1.9765625 8.1015625 C1.925 9.31328125 1.8734375 10.525 1.8203125 11.7734375 C1.75585938 13.04445312 1.69140625 14.31546875 1.625 15.625 C1.53992188 17.543125 1.53992188 17.543125 1.453125 19.5 C1.31131484 22.6670935 1.15683567 25.83361501 1 29 C-7.58 28.34 -16.16 27.68 -25 27 C-25 36.24 -25 45.48 -25 55 C-40.75 55 -40.75 55 -47.375 54.5 C-49.27378906 54.36078125 -49.27378906 54.36078125 -51.2109375 54.21875 C-52.13132813 54.1465625 -53.05171875 54.074375 -54 54 C-50.03457193 49.17058717 -45.84030435 44.84253444 -41.21484375 40.6484375 C-32.41737119 32.55162789 -23.99077635 24.10269538 -15.5625 15.625 C-14.04125409 14.09872062 -12.51977083 12.57267777 -10.99804688 11.046875 C-7.32930271 7.36729098 -3.66373847 3.68456791 0 0 Z " fill="#E9EAAF" transform="translate(255,151)"/>
<path d="M0 0 C0.7425 0.185625 1.485 0.37125 2.25 0.5625 C5.09904885 1.01575777 6.27269324 0.70130745 9 0 C14.84260732 -0.38312179 18.78732802 -0.00731076 24 3 C27.56544907 6.65687084 28.27743822 9.60725411 28.4375 14.5625 C28.27784595 18.747717 27.96399578 21.81644898 25 25 C24.01 25 23.02 25 22 25 C22.33 24.360625 22.66 23.72125 23 23.0625 C24.64271211 18.03169417 24.51362089 13.194562 23.3125 8.0625 C21.47238932 5.1708975 20.35766032 4.76946382 17 4 C13.65904022 3.85162659 10.34148458 3.88321025 7 4 C7.7734375 5.1446875 7.7734375 5.1446875 8.5625 6.3125 C9.37575897 7.54116464 10.18810901 8.77043098 11 10 C11.59039062 10.88171875 12.18078125 11.7634375 12.7890625 12.671875 C13.41554688 13.62578125 14.04203125 14.5796875 14.6875 15.5625 C15.28949219 16.47128906 15.89148438 17.38007813 16.51171875 18.31640625 C17.98061183 20.96504023 18.44670051 23.05931566 19 26 C20.96758273 27.36020151 20.96758273 27.36020151 23 28 C22.73534116 31.19796093 21.90358666 32.0905012 19.515625 34.33203125 C18.43716097 35.17195651 17.34786506 35.99809751 16.25 36.8125 C15.67668945 37.24755859 15.10337891 37.68261719 14.51269531 38.13085938 C9.44149006 41.87974164 4.132324 44.81453734 -1.515625 47.625 C-4.11442534 48.7571786 -4.11442534 48.7571786 -5 51 C-6.3921875 50.7215625 -6.3921875 50.7215625 -7.8125 50.4375 C-11.01343771 49.75876119 -11.01343771 49.75876119 -14 51 C-19.26721247 51.50439554 -23.65121655 51.62622089 -28.5 49.375 C-32.52274444 45.55339278 -33.82530737 42.57223364 -34.4375 37.0625 C-34.26214668 32.50331364 -32.63062839 29.68287974 -30 26 C-29.01 25.67 -28.02 25.34 -27 25 C-27.875 29.875 -27.875 29.875 -29 31 C-29.55419529 35.90599112 -29.74119722 39.78937787 -27.125 44.0625 C-24.29111024 46.64634066 -22.74275915 47.15309964 -19 47.1875 C-18.29875 47.20167969 -17.5975 47.21585937 -16.875 47.23046875 C-14.75475062 47.16512323 -14.75475062 47.16512323 -13 45 C-13.45890625 44.50371094 -13.9178125 44.00742187 -14.390625 43.49609375 C-24 32.85714286 -24 32.85714286 -24 27 C-23.01 26.67 -22.02 26.34 -21 26 C-20.40832031 26.96421875 -19.81664062 27.9284375 -19.20703125 28.921875 C-18.40932228 30.19820936 -17.61111889 31.4742348 -16.8125 32.75 C-16.42513672 33.38421875 -16.03777344 34.0184375 -15.63867188 34.671875 C-13.22408785 38.50328106 -10.98345069 41.64586118 -7 44 C-0.14454869 43.79390257 6.46279069 38.57306977 12.125 35.0625 C14.97540644 31.92705291 15.20243016 30.25103339 15 26 C12.37440781 19.54066269 8.43696623 12.52606089 3 8 C0.50992588 6.95046463 -0.62760133 6.88632041 -3.2265625 7.6796875 C-9.80887434 10.96012304 -19.27025753 15.93246303 -21.77734375 23.27734375 C-21.88755859 24.13005859 -21.88755859 24.13005859 -22 25 C-23.65 24.67 -25.3 24.34 -27 24 C-27.33 22.68 -27.66 21.36 -28 20 C-12.49616919 7.05211527 -12.49616919 7.05211527 -4.30078125 3.9921875 C-1.6798398 3.10950499 -1.6798398 3.10950499 0 0 Z " fill="#F3F1F8" transform="translate(357,267)"/>
<path d="M0 0 C3.361875 0.144375 6.72375 0.28875 10.1875 0.4375 C11.23832764 0.48060303 12.28915527 0.52370605 13.37182617 0.56811523 C14.63216675 0.6252771 14.63216675 0.6252771 15.91796875 0.68359375 C16.77156982 0.72025146 17.6251709 0.75690918 18.50463867 0.79467773 C21.06454594 1.00531094 23.49333243 1.44841536 26 2 C27.2901906 11.72250771 28.26912681 21.17051425 28 31 C24.60376001 30.69182184 21.20809553 30.37769353 17.8125 30.0625 C16.85279297 29.97548828 15.89308594 29.88847656 14.90429688 29.79882812 C13.97294922 29.71181641 13.04160156 29.62480469 12.08203125 29.53515625 C11.22843018 29.456604 10.3748291 29.37805176 9.49536133 29.29711914 C6.97755618 28.99732765 4.48635076 28.49727015 2 28 C1.34 18.76 0.68 9.52 0 0 Z " fill="#E7EAB2" transform="translate(230,207)"/>
<path d="M0 0 C4.30860898 2.36476052 7.110027 5.46936379 9 10 C9.51413918 15.44987526 8.79894112 19.27678687 6 24 C2.46661685 27.15935385 -0.83777599 28.79246 -5.5 29.625 C-11.12148475 28.62116344 -15.16565402 26.00631591 -19 21.8125 C-20.53017169 17.50889212 -20.65046551 13.50989421 -20 9 C-15.76861313 0.38050822 -9.13665644 -1.63387991 0 0 Z " fill="#DD3E40" transform="translate(562,105)"/>
<path d="M0 0 C3.88192126 3.76774711 7.79531881 7.62797789 11 12 C11 12.66 11 13.32 11 14 C9.70703125 15.26953125 9.70703125 15.26953125 7.8125 16.8125 C4.95587469 19.20920353 2.28988229 21.6944644 -0.28515625 24.38671875 C-0.85661377 24.98057373 -1.42807129 25.57442871 -2.0168457 26.1862793 C-3.16490855 27.38771033 -4.30298081 28.59877466 -5.43041992 29.81958008 C-7.046875 31.5 -7.046875 31.5 -10 34 C-14.10751429 33.56729326 -15.95675811 31.35397315 -18.75 28.4375 C-19.54921875 27.61121094 -20.3484375 26.78492188 -21.171875 25.93359375 C-21.77515625 25.29550781 -22.3784375 24.65742188 -23 24 C-18.77883845 18.96956668 -14.39019121 14.20760667 -9.75 9.5625 C-9.12609375 8.92634766 -8.5021875 8.29019531 -7.859375 7.63476562 C-7.26125 7.03470703 -6.663125 6.43464844 -6.046875 5.81640625 C-5.24008301 5.00345093 -5.24008301 5.00345093 -4.41699219 4.17407227 C-3 3 -3 3 -1 3 C-0.67 2.01 -0.34 1.02 0 0 Z " fill="#371D98" transform="translate(307,239)"/>
<path d="M0 0 C6.06375 0.4640625 6.06375 0.4640625 12.25 0.9375 C13.51875977 1.03281006 14.78751953 1.12812012 16.09472656 1.22631836 C17.60244629 1.34438843 17.60244629 1.34438843 19.140625 1.46484375 C20.16704102 1.543396 21.19345703 1.62194824 22.25097656 1.70288086 C24.59939573 1.95670201 26.73393582 2.35289171 29 3 C27.51176739 6.45690288 25.5424581 8.71510536 22.89453125 11.37109375 C21.66573242 12.60375977 21.66573242 12.60375977 20.41210938 13.86132812 C19.55423828 14.71146484 18.69636719 15.56160156 17.8125 16.4375 C16.97396484 17.28376953 16.13542969 18.13003906 15.27148438 19.00195312 C14.44583984 19.82501953 13.62019531 20.64808594 12.76953125 21.49609375 C12.02292236 22.24044678 11.27631348 22.9847998 10.50708008 23.75170898 C7.54029984 26.41224839 4.24273094 28.68376362 1 31 C0.67 20.77 0.34 10.54 0 0 Z " fill="#E8E9B0" transform="translate(259,238)"/>
<path d="M0 0 C8.58 0.66 17.16 1.32 26 2 C26.33 3.32 26.66 4.64 27 6 C25.14160156 8.47363281 25.14160156 8.47363281 22.390625 11.203125 C21.90801208 11.6857782 21.42539917 12.1684314 20.92816162 12.66571045 C19.90498042 13.68352971 18.87567499 14.69522375 17.84082031 15.70117188 C16.25594319 17.24421369 14.69344197 18.80747816 13.1328125 20.375 C5.42663945 28 5.42663945 28 2 28 C1.65988375 24.83402429 1.32916813 21.6671312 1 18.5 C0.90460938 17.613125 0.80921875 16.72625 0.7109375 15.8125 C0.62070312 14.9359375 0.53046875 14.059375 0.4375 13.15625 C0.35371094 12.36025391 0.26992188 11.56425781 0.18359375 10.74414062 C-0.05551504 7.17022731 0 3.58190304 0 0 Z " fill="#E7E8AF" transform="translate(287,212)"/>
<path d="M0 0 C3.42446666 1.71223333 4.53073609 2.2902646 6.76953125 5.01171875 C7.50901001 5.89621704 7.50901001 5.89621704 8.26342773 6.79858398 C9.03021851 7.73359741 9.03021851 7.73359741 9.8125 8.6875 C13.49835358 13.09788964 17.1527723 17.3904024 21.40234375 21.27734375 C23.89521026 23.96525116 25.91528016 26.9903438 28 30 C23.89534933 29.69365616 19.79138878 29.37887415 15.6875 29.0625 C14.52025391 28.97548828 13.35300781 28.88847656 12.15039062 28.79882812 C11.03212891 28.71181641 9.91386719 28.62480469 8.76171875 28.53515625 C7.2142395 28.41732788 7.2142395 28.41732788 5.63549805 28.29711914 C3 28 3 28 0 27 C0 18.09 0 9.18 0 0 Z " fill="#F1F2EE" transform="translate(256,153)"/>
<path d="M0 0 C3.22370429 1.0745681 3.74568921 1.6055631 5.8125 4.125 C8.28805337 7.05839765 10.82805713 9.90329962 13.46484375 12.69140625 C14.08576904 13.34802246 14.70669434 14.00463867 15.34643555 14.68115234 C16.59860315 16.0009309 17.85389446 17.31775399 19.11254883 18.63134766 C22.20854105 21.90545614 24.87827542 24.97948568 27 29 C18.4488728 29.27733386 10.41518047 28.52016163 2 27 C-0.46456257 18.04395567 -0.1920743 9.19822505 0 0 Z " fill="#F1F2EE" transform="translate(285,185)"/>
<path d="M0 0 C4.00929766 0.57275681 6.56977589 1.90839994 10 4 C11.98451771 4.71143088 13.98202112 5.38991336 16 6 C15.67 6.66 15.34 7.32 15 8 C12.525 7.505 12.525 7.505 10 7 C9.01 8.485 9.01 8.485 8 10 C6.20185048 10.96451375 4.36095264 11.85055094 2.5 12.6875 C-3.02155409 15.31554738 -7.32190346 18.46632263 -11.84375 22.55859375 C-14 24 -14 24 -16.21875 23.78515625 C-18 23 -18 23 -19 22 C-19.07205511 20.31391034 -19.08386068 18.62499341 -19.0625 16.9375 C-19.05347656 16.01839844 -19.04445313 15.09929687 -19.03515625 14.15234375 C-19.02355469 13.44207031 -19.01195312 12.73179687 -19 12 C-18.67 12 -18.34 12 -18 12 C-17.95101563 12.63808594 -17.90203125 13.27617187 -17.8515625 13.93359375 C-17.77679688 14.75988281 -17.70203125 15.58617187 -17.625 16.4375 C-17.55539062 17.26121094 -17.48578125 18.08492188 -17.4140625 18.93359375 C-17.27742188 19.61550781 -17.14078125 20.29742187 -17 21 C-16.34 21.33 -15.68 21.66 -15 22 C-14.97873047 20.91332031 -14.97873047 20.91332031 -14.95703125 19.8046875 C-14.62697677 13.11439397 -13.96307326 9.59992156 -9 5 C-5.82335647 3.41167823 -2.45929132 3.58817961 1 4 C3.375 5.5 3.375 5.5 5 7 C5.66 7 6.32 7 7 7 C7 6.34 7 5.68 7 5 C4.69 3.68 2.38 2.36 0 1 C0 0.67 0 0.34 0 0 Z " fill="#543BDA" transform="translate(347,261)"/>
<path d="M0 0 C4.16960522 1.76049998 6.27128428 3.81468826 8 8 C8.59891459 12.51237019 8.51812899 15.94215332 6.5 20.0625 C6.005 20.701875 5.51 21.34125 5 22 C6.98 21.01 8.96 20.02 11 19 C10.71125 19.53625 10.4225 20.0725 10.125 20.625 C8.89307837 23.07189803 8.89307837 23.07189803 8.0625 26.125 C7 29 7 29 4 31 C4.33 29.02 4.66 27.04 5 25 C4.01 24.34 3.02 23.68 2 23 C0.99083243 21.16258005 0.06276515 19.27984702 -0.8125 17.375 C-3.08856552 12.62891851 -5.55884391 8.58232818 -8.8984375 4.5234375 C-10 3 -10 3 -10 1 C-6.80401935 -0.59799033 -3.47677244 -0.36773555 0 0 Z " fill="#593FDB" transform="translate(374,270)"/>
<path d="M0 0 C0.56606361 10.79713931 0.56606361 10.79713931 -3 15 C-5.59053932 17.78243112 -6.95727862 17.99509755 -10.8125 18.4375 C-15.39167811 18.29144741 -18.23840274 16.50773151 -22 14 C-22 14.99 -22 15.98 -22 17 C-19.55503957 18.71711243 -19.55503957 18.71711243 -17 20 C-19 21 -19 21 -20.9453125 20.44140625 C-21.66460937 20.15136719 -22.38390625 19.86132812 -23.125 19.5625 C-24.21167969 19.13130859 -24.21167969 19.13130859 -25.3203125 18.69140625 C-25.87460937 18.46324219 -26.42890625 18.23507812 -27 18 C-26.01 17.67 -25.02 17.34 -24 17 C-23.90976562 16.40058594 -23.81953125 15.80117188 -23.7265625 15.18359375 C-22.5631144 11.68699435 -19.47250129 10.67212548 -16.375 9.0625 C-15.09472562 8.36888299 -13.81605855 7.67229054 -12.5390625 6.97265625 C-11.92579102 6.63766113 -11.31251953 6.30266602 -10.68066406 5.95751953 C-8.59787488 4.7708985 -6.66972108 3.43366404 -4.75 2 C-2 0 -2 0 0 0 Z " fill="#5A3FDB" transform="translate(376,302)"/>
<path d="M0 0 C0.99 0.33 1.98 0.66 3 1 C3.08378906 1.70898438 3.16757812 2.41796875 3.25390625 3.1484375 C4.17004627 6.64991506 5.74980844 8.75291307 7.9375 11.625 C9.00291016 13.03652344 9.00291016 13.03652344 10.08984375 14.4765625 C10.72019531 15.30929687 11.35054688 16.14203125 12 17 C12.66 17.99 13.32 18.98 14 20 C10.3112362 22.45917586 7.2815571 22.81591937 3 22 C-0.0220794 20.25549494 -2.41651082 18.16697836 -4 15 C-4.54129128 9.98640045 -4.76641668 6.19752606 -2 1.875 C-1.34 1.25625 -0.68 0.6375 0 0 Z " fill="#563CDA" transform="translate(331,293)"/>
<path d="M0 0 C0 3 0 3 -1.43359375 4.79003906 C-2.09488281 5.44198242 -2.75617188 6.09392578 -3.4375 6.765625 C-4.16839844 7.49136719 -4.89929688 8.21710938 -5.65234375 8.96484375 C-6.42707031 9.71894531 -7.20179688 10.47304687 -8 11.25 C-8.74378906 11.98863281 -9.48757813 12.72726563 -10.25390625 13.48828125 C-14.45088832 17.62687053 -18.7425338 21.60642165 -23.22460938 25.43457031 C-25.6803309 27.59987372 -27.94458528 29.93451946 -30.23779297 32.26928711 C-31.99625513 33.99632205 -33.81851521 35.59441447 -35.6953125 37.19140625 C-40.92299024 41.73401982 -45.70601991 46.68859582 -50.52734375 51.65429688 C-51.20667969 52.34458984 -51.88601563 53.03488281 -52.5859375 53.74609375 C-53.1948584 54.37185303 -53.8037793 54.9976123 -54.43115234 55.64233398 C-56 57 -56 57 -58 57 C-58 57.66 -58 58.32 -58 59 C-58.66 59 -59.32 59 -60 59 C-58.41854247 54.87656779 -55.41328094 52.41204173 -52.1875 49.5625 C-47.38140491 45.23141417 -42.72939381 40.7948794 -38.1875 36.1875 C-34.31331074 32.2666269 -30.39582314 28.52051179 -26.1796875 24.96484375 C-22.4161968 21.57230644 -18.9086859 17.91046287 -15.390625 14.265625 C-13.96321494 12.80748123 -12.48534366 11.39908432 -11 10 C-10.34 10 -9.68 10 -9 10 C-8.61714844 9.11054688 -8.61714844 9.11054688 -8.2265625 8.203125 C-6.88183502 5.78775462 -5.50785633 4.48788294 -3.375 2.75 C-2.74335938 2.22921875 -2.11171875 1.7084375 -1.4609375 1.171875 C-0.73777344 0.59179688 -0.73777344 0.59179688 0 0 Z " fill="#6C4AE4" transform="translate(327,243)"/>
<path d="M0 0 C2.36185168 1.09708729 3.96522046 2.3304373 6 4 C5.67 4.99 5.34 5.98 5 7 C2 5.5 2 5.5 -1 4 C-6.81345947 3.46634487 -6.81345947 3.46634487 -11.9375 5.875 C-15.05954049 9.09164777 -15.20566687 11.2410501 -15.5625 15.625 C-15.68818359 17.12933594 -15.68818359 17.12933594 -15.81640625 18.6640625 C-15.87699219 19.43492187 -15.93757813 20.20578125 -16 21 C-16.99 21 -17.98 21 -19 21 C-20.55030118 19.44969882 -20.24405099 17.96323999 -20.3125 15.8125 C-20.25294747 11.12273854 -19.10841207 8.61247889 -16 5 C-10.70087007 0.33171887 -7.00285754 -0.90321613 0 0 Z " fill="#EEEBF8" transform="translate(349,262)"/>
<path d="M0 0 C0.99 0 1.98 0 3 0 C3.90981169 10.26065411 3.90981169 10.26065411 1.8046875 14.28515625 C-1.24850466 17.89835602 -4.3172728 20.57354059 -9.11328125 21.3359375 C-14.94140916 21.43945665 -18.18062354 20.28127759 -23 17 C-22.505 15.515 -22.505 15.515 -22 14 C-17.25 15.875 -17.25 15.875 -15 17 C-9.37086529 17.56341558 -9.37086529 17.56341558 -4.3203125 15.40234375 C-1.38497609 12.36323282 -1.14476882 10.40698928 -0.6875 6.25 C-0.47673828 4.49429687 -0.47673828 4.49429687 -0.26171875 2.703125 C-0.17535156 1.81109375 -0.08898437 0.9190625 0 0 Z " fill="#F1EEF8" transform="translate(376,302)"/>
<path d="M0 0 C2 2 2 2 2.3125 4.9375 C2 8 2 8 0.8125 9.875 C-1.68036381 11.42229478 -3.11967335 11.50405716 -6 11 C-7.875 9.375 -7.875 9.375 -9 7 C-8.8125 3.8125 -8.8125 3.8125 -8 1 C-5.23749964 -0.38125018 -3.05268901 -0.19079306 0 0 Z " fill="#F3F1F8" transform="translate(358,287)"/>
<path d="M0 0 C0.66 0 1.32 0 2 0 C1.125 4.875 1.125 4.875 0 6 C-0.57119061 11.93159481 -0.3929387 15.98435148 3 21 C2.6875 23.3125 2.6875 23.3125 2 25 C-1.73991846 22.34268952 -3.8738211 20.50471559 -5 16 C-5.62676849 9.52339231 -4.61992252 6.37503647 -1 1 C-0.67 0.67 -0.34 0.34 0 0 Z " fill="#E7E4F5" transform="translate(328,292)"/>
<path d="M0 0 C0.66 0.33 1.32 0.66 2 1 C-1.37498736 4.42431819 -4.75641049 7.84209712 -8.14404297 11.25390625 C-9.29624094 12.41617986 -10.44663992 13.58023967 -11.59521484 14.74609375 C-13.24370414 16.41876279 -14.89849505 18.08496235 -16.5546875 19.75 C-17.06933563 20.2749707 -17.58398376 20.79994141 -18.11422729 21.34082031 C-19.37208852 22.59907712 -20.68187263 23.80502498 -22 25 C-22.66 25 -23.32 25 -24 25 C-24 25.66 -24 26.32 -24 27 C-24.66 27 -25.32 27 -26 27 C-24.4109604 22.82506986 -21.3213524 20.32153981 -18.0625 17.4375 C-11.83351274 11.81696617 -5.8791402 5.9851768 0 0 Z " fill="#7955E5" transform="translate(293,275)"/>
<path d="M0 0 C0 4.92323388 -3.75077257 7.54216458 -7 11 C-7.62132812 11.67417969 -8.24265625 12.34835937 -8.8828125 13.04296875 C-13.88223235 18.29127746 -13.88223235 18.29127746 -18 19 C-12.44964797 12.21623641 -6.23557973 6.14477032 0 0 Z " fill="#111126" transform="translate(310,403)"/>
<path d="M0 0 C0.66 0.28875 1.32 0.5775 2 0.875 C4.44542042 1.79203266 6.6529971 2.38812688 9.1875 2.9375 C13 4 13 4 15 7 C8.34454208 7.54330269 4.54165256 6.77304004 -1 3 C-0.67 2.01 -0.34 1.02 0 0 Z " fill="#EEECF8" transform="translate(354,316)"/>
<path d="M0 0 C0.99 0.33 1.98 0.66 3 1 C1.625 2.5 1.625 2.5 0 4 C-0.66 4 -1.32 4 -2 4 C-2.24492187 4.58265625 -2.48984375 5.1653125 -2.7421875 5.765625 C-4.20435874 8.36302236 -5.84740414 9.83975831 -8.125 11.75 C-9.21167969 12.67039063 -9.21167969 12.67039063 -10.3203125 13.609375 C-10.87460938 14.06828125 -11.42890625 14.5271875 -12 15 C-12.66 14.67 -13.32 14.34 -14 14 C-9.38 9.38 -4.76 4.76 0 0 Z " fill="#0E121C" transform="translate(211,137)"/>
<path d="M0 0 C0.556875 0.226875 1.11375 0.45375 1.6875 0.6875 C0.3675 1.6775 -0.9525 2.6675 -2.3125 3.6875 C-0.9925 4.6775 0.3275 5.6675 1.6875 6.6875 C-1.68712715 6.14026317 -3.39485 5.6326 -6.3125 3.6875 C-6.3125 4.6775 -6.3125 5.6675 -6.3125 6.6875 C-3.86753957 8.40461243 -3.86753957 8.40461243 -1.3125 9.6875 C-3.3125 10.6875 -3.3125 10.6875 -5.2578125 10.12890625 C-5.97710937 9.83886719 -6.69640625 9.54882812 -7.4375 9.25 C-8.16195313 8.96253906 -8.88640625 8.67507813 -9.6328125 8.37890625 C-10.18710937 8.15074219 -10.74140625 7.92257812 -11.3125 7.6875 C-10.3225 7.3575 -9.3325 7.0275 -8.3125 6.6875 C-8.18875 6.06875 -8.065 5.45 -7.9375 4.8125 C-7.3125 2.6875 -7.3125 2.6875 -5 0.875 C-2.3125 -0.3125 -2.3125 -0.3125 0 0 Z " fill="#4C38D8" transform="translate(360.3125,312.3125)"/>
<path d="M0 0 C0 3 0 3 -1.5390625 4.796875 C-2.22742188 5.44140625 -2.91578125 6.0859375 -3.625 6.75 C-6.38438291 9.39196236 -8.95056124 12.04746567 -11.375 15 C-12.24125 15.99 -13.1075 16.98 -14 18 C-14.66 18 -15.32 18 -16 18 C-14.6415798 14.95667235 -13.11536976 12.87690849 -10.7421875 10.546875 C-10.11699219 9.928125 -9.49179687 9.309375 -8.84765625 8.671875 C-8.19667969 8.03765625 -7.54570312 7.4034375 -6.875 6.75 C-6.21628906 6.1003125 -5.55757813 5.450625 -4.87890625 4.78125 C-3.25703357 3.18288273 -1.6306719 1.58938103 0 0 Z " fill="#0A0B17" transform="translate(404,324)"/>
<path d="M0 0 C0.66 1.32 1.32 2.64 2 4 C-0.64 5.98 -3.28 7.96 -6 10 C-6 9.34 -6 8.68 -6 8 C-7.32 8.33 -8.64 8.66 -10 9 C-6.83047153 5.73991357 -3.60062011 2.77762123 0 0 Z " fill="#EDEBF7" transform="translate(343,276)"/>
<path d="M0 0 C0.33 0.99 0.66 1.98 1 3 C1.66 3 2.32 3 3 3 C3 5.97 3 8.94 3 12 C2.01 12 1.02 12 0 12 C-1 11 -1 11 -1.1328125 9.00390625 C-1.13023437 8.19824219 -1.12765625 7.39257812 -1.125 6.5625 C-1.12757813 5.75941406 -1.13015625 4.95632813 -1.1328125 4.12890625 C-1 2 -1 2 0 0 Z " fill="#D7D1F3" transform="translate(330,271)"/>
<path d="M0 0 C0.33 0.66 0.66 1.32 1 2 C0.0625 4.125 0.0625 4.125 -1 6 C0.98 5.01 2.96 4.02 5 3 C4.566875 3.804375 4.566875 3.804375 4.125 4.625 C2.89307837 7.07189803 2.89307837 7.07189803 2.0625 10.125 C1 13 1 13 -2 15 C-1.67 13.02 -1.34 11.04 -1 9 C-1.99 8.34 -2.98 7.68 -4 7 C-3.02391783 4.07175348 -1.89213369 2.38573379 0 0 Z " fill="#4630D8" transform="translate(380,286)"/>
<path d="M0 0 C5.24972347 4.10037573 9.20962911 8.52964787 13 14 C9.16549144 12.45212498 6.97444301 10.06277254 4.25 7 C3.45078125 6.113125 2.6515625 5.22625 1.828125 4.3125 C0 2 0 2 0 0 Z " fill="#15161C" transform="translate(168,451)"/>
<path d="M0 0 C0.66 0.66 1.32 1.32 2 2 C1.34 2 0.68 2 0 2 C-0.061875 2.61875 -0.12375 3.2375 -0.1875 3.875 C-1 6 -1 6 -3.5625 7.25 C-4.366875 7.4975 -5.17125 7.745 -6 8 C-6 7.34 -6 6.68 -6 6 C-6.66 5.67 -7.32 5.34 -8 5 C-4.04 2.525 -4.04 2.525 0 0 Z " fill="#ECEAF7" transform="translate(367,303)"/>
<path d="M0 0 C2.2477975 2.05233685 3.0022242 3.00667261 4 6 C2.02 6.99 2.02 6.99 0 8 C-1.4606285 5.35261084 -2 4.10551666 -2 1 C-1.34 0.67 -0.68 0.34 0 0 Z " fill="#E7E5F6" transform="translate(335,293)"/>
<path d="M0 0 C0 3 0 3 -1.5625 4.6875 C-4.80631168 6.43416783 -7.37343285 6.20922503 -11 6 C-8.61542052 4.41028035 -6.3695876 3.13258407 -3.8125 1.875 C-3.09707031 1.52179688 -2.38164062 1.16859375 -1.64453125 0.8046875 C-1.10183594 0.53914063 -0.55914062 0.27359375 0 0 Z " fill="#F9F8FB" transform="translate(375,316)"/>
<path d="M0 0 C0.99 0 1.98 0 3 0 C3.65134925 1.56020867 4.29582964 3.12328579 4.9375 4.6875 C5.47697266 5.99267578 5.47697266 5.99267578 6.02734375 7.32421875 C6.9570312 9.88179265 7.54162625 12.3221323 8 15 C5.84821844 12.23612808 4.01629579 9.43466931 2.3125 6.375 C1.87550781 5.59898437 1.43851563 4.82296875 0.98828125 4.0234375 C0 2 0 2 0 0 Z " fill="#181A20" transform="translate(571,176)"/>
<path d="M0 0 C0.66 0.66 1.32 1.32 2 2 C-0.64 4.31 -3.28 6.62 -6 9 C-6.66 8.67 -7.32 8.34 -8 8 C-5.36 5.36 -2.72 2.72 0 0 Z " fill="#010812" transform="translate(422,305)"/>
<path d="M0 0 C0.66 0.33 1.32 0.66 2 1 C-0.97 3.97 -3.94 6.94 -7 10 C-7.99 9.67 -8.98 9.34 -10 9 C-6.7 6.03 -3.4 3.06 0 0 Z " fill="#3F24A9" transform="translate(490,170)"/>
<path d="M0 0 C-0.33 1.65 -0.66 3.3 -1 5 C-2.98 5.66 -4.96 6.32 -7 7 C-3.72340426 0 -3.72340426 0 0 0 Z " fill="#E7E5F6" transform="translate(379,311)"/>
<path d="M0 0 C2.99220268 1.36370299 5.29026529 2.94908083 7.75 5.125 C8.67039062 5.93324219 8.67039062 5.93324219 9.609375 6.7578125 C10.06828125 7.16773438 10.5271875 7.57765625 11 8 C10.34 8.66 9.68 9.32 9 10 C7.49702124 8.52386015 5.99768715 7.04400843 4.5 5.5625 C3.6646875 4.73878906 2.829375 3.91507813 1.96875 3.06640625 C0 1 0 1 0 0 Z " fill="#100F21" transform="translate(515,211)"/>
<path d="M0 0 C3.375 -0.1875 3.375 -0.1875 7 0 C7.66 0.99 8.32 1.98 9 3 C6.03 3 3.06 3 0 3 C0 2.01 0 1.02 0 0 Z " fill="#DDD8F5" transform="translate(360,320)"/>
<path d="M0 0 C0.66 0.33 1.32 0.66 2 1 C0.37660195 2.70884005 -1.29319053 4.37446717 -3 6 C-3.66 6 -4.32 6 -5 6 C-5 6.66 -5 7.32 -5 8 C-5.66 8 -6.32 8 -7 8 C-5.50902342 4.2047869 -3.24299151 2.38957269 0 0 Z " fill="#6F4ED6" transform="translate(274,294)"/>
<path d="M0 0 C0.66 0 1.32 0 2 0 C1.8125 2.375 1.8125 2.375 1 5 C-1.5625 6.3125 -1.5625 6.3125 -4 7 C-2.92598892 4.08482708 -2.22189824 2.22189824 0 0 Z " fill="#EDEDF7" transform="translate(328,292)"/>
<path d="M0 0 C1.98 0.66 3.96 1.32 6 2 C6 2.99 6 3.98 6 5 C4 6.6875 4 6.6875 2 8 C2.33 6.02 2.66 4.04 3 2 C2.01 2 1.02 2 0 2 C0 1.34 0 0.68 0 0 Z " fill="#351EA9" transform="translate(547,131)"/>
<path d="M0 0 C0.33 0 0.66 0 1 0 C1 1.65 1 3.3 1 5 C1.66 5 2.32 5 3 5 C2.67 6.98 2.34 8.96 2 11 C1.34 11 0.68 11 0 11 C0 7.37 0 3.74 0 0 Z " fill="#EDEEB6" transform="translate(289,229)"/>
<path d="M0 0 C2.64 0 5.28 0 8 0 C7.625 1.9375 7.625 1.9375 7 4 C6.01 4.495 6.01 4.495 5 5 C4.67 4.01 4.34 3.02 4 2 C1.99983534 0.79117904 1.99983534 0.79117904 0 0 Z " fill="#ECED9B" transform="translate(306,215)"/>
<path d="M0 0 C2.0625 1.75 2.0625 1.75 4 4 C3.75 6.25 3.75 6.25 3 8 C1.45428722 5.68143083 0.20381448 3.49361571 -1 1 C-0.67 0.67 -0.34 0.34 0 0 Z " fill="#F5F4F8" transform="translate(368,279)"/>
</svg>
